<?xml version="1.0" standalone="no"?>
<svg xmlns:xlink="http://www.w3.org/1999/xlink" id="wave" style="transform:rotate(180deg); transition: 0.3s" viewBox="0 0 1440 490" version="1.1" xmlns="http://www.w3.org/2000/svg"><defs><linearGradient id="sw-gradient-0" x1="0" x2="0" y1="1" y2="0"><stop stop-color="rgba(0, 29.733, 141.531, 1)" offset="0%"/><stop stop-color="rgba(5, 117, 230, 1)" offset="100%"/></linearGradient></defs><path style="transform:translate(0, 0px); opacity:1" fill="url(#sw-gradient-0)" d="M0,294L34.3,294C68.6,294,137,294,206,269.5C274.3,245,343,196,411,204.2C480,212,549,278,617,294C685.7,310,754,278,823,236.8C891.4,196,960,147,1029,122.5C1097.1,98,1166,98,1234,130.7C1302.9,163,1371,229,1440,285.8C1508.6,343,1577,392,1646,416.5C1714.3,441,1783,441,1851,383.8C1920,327,1989,212,2057,204.2C2125.7,196,2194,294,2263,294C2331.4,294,2400,196,2469,155.2C2537.1,114,2606,131,2674,187.8C2742.9,245,2811,343,2880,375.7C2948.6,408,3017,376,3086,326.7C3154.3,278,3223,212,3291,212.3C3360,212,3429,278,3497,302.2C3565.7,327,3634,310,3703,302.2C3771.4,294,3840,294,3909,277.7C3977.1,261,4046,229,4114,228.7C4182.9,229,4251,261,4320,294C4388.6,327,4457,359,4526,367.5C4594.3,376,4663,359,4731,343C4800,327,4869,310,4903,302.2L4937.1,294L4937.1,490L4902.9,490C4868.6,490,4800,490,4731,490C4662.9,490,4594,490,4526,490C4457.1,490,4389,490,4320,490C4251.4,490,4183,490,4114,490C4045.7,490,3977,490,3909,490C3840,490,3771,490,3703,490C3634.3,490,3566,490,3497,490C3428.6,490,3360,490,3291,490C3222.9,490,3154,490,3086,490C3017.1,490,2949,490,2880,490C2811.4,490,2743,490,2674,490C2605.7,490,2537,490,2469,490C2400,490,2331,490,2263,490C2194.3,490,2126,490,2057,490C1988.6,490,1920,490,1851,490C1782.9,490,1714,490,1646,490C1577.1,490,1509,490,1440,490C1371.4,490,1303,490,1234,490C1165.7,490,1097,490,1029,490C960,490,891,490,823,490C754.3,490,686,490,617,490C548.6,490,480,490,411,490C342.9,490,274,490,206,490C137.1,490,69,490,34,490L0,490Z"/></svg>