<svg width="1280" height="720" xmlns="http://www.w3.org/2000/svg" xmlns:xlink="http://www.w3.org/1999/xlink" overflow="hidden"><defs><clipPath id="clip0"><rect x="0" y="0" width="1280" height="720"/></clipPath><linearGradient x1="276" y1="-83.0001" x2="276" y2="764" gradientUnits="userSpaceOnUse" spreadMethod="reflect" id="fill1"><stop offset="0" stop-color="#212CFF"/><stop offset="0.35" stop-color="#212CFF"/><stop offset="1" stop-color="#00B0F0"/></linearGradient><linearGradient x1="1029.5" y1="-11" x2="1029.5" y2="757" gradientUnits="userSpaceOnUse" spreadMethod="reflect" id="fill2"><stop offset="0" stop-color="#00B0F0"/><stop offset="0.54" stop-color="#00B0F0"/><stop offset="0.72" stop-color="#212CFF"/><stop offset="1" stop-color="#1C2ED6"/></linearGradient></defs><g clip-path="url(#clip0)"><rect x="0" y="0" width="1280" height="720" fill="#FFFFFF"/><rect x="-55" y="-48" width="1341" height="862" fill="#BFBFBF"/><path d="M-99.8525-0.794495C24.4737-132.69 598.006-78.3863 682.261-26.7827 766.516 24.8208 645.509 238.672 405.68 308.827 27.7087 462.51 49.3384 810.432-34.917 758.828-119.172 707.225-224.179 131.101-99.8525-0.794495Z" fill="url(#fill1)" fill-rule="evenodd"/><path d="M1152.66 318.245C1253.38 196.939 1177.48 5.18344 1271.03-10.6795 1364.58-26.5425 1395 551.215 1395 665.365 1395 779.514 707.083 775.006 666.694 717.153 626.304 659.299 1051.94 439.55 1152.66 318.245Z" fill="url(#fill2)" fill-rule="evenodd"/></g></svg>